<svg width="689" height="689" viewBox="0 0 689 689" fill="none" xmlns="http://www.w3.org/2000/svg">
<mask id="mask0_65_38" style="mask-type:alpha" maskUnits="userSpaceOnUse" x="46" y="3" width="597" height="683">
<path d="M334.75 6.20605C340.595 2.8316 347.754 2.72685 353.681 5.89062L354.25 6.20605L632.596 166.909C638.629 170.393 642.346 176.83 642.346 183.797V505.203C642.346 512.17 638.629 518.608 632.596 522.091L354.25 682.794C348.217 686.277 340.783 686.277 334.75 682.794L56.4043 522.091C50.371 518.608 46.6543 512.17 46.6543 505.203V183.797C46.6543 176.83 50.371 170.392 56.4043 166.909L334.75 6.20605Z" fill="url(#paint0_linear_65_38)" stroke="#F7F3E8"/>
</mask>
<g mask="url(#mask0_65_38)">
<g filter="url(#filter0_i_65_38)">
<path d="M334.5 5.7735C340.688 2.20084 348.312 2.20085 354.5 5.7735L632.846 166.477C639.034 170.049 642.846 176.652 642.846 183.797V505.203C642.846 512.348 639.034 518.951 632.846 522.523L354.5 683.227C348.312 686.799 340.688 686.799 334.5 683.227L56.1542 522.523C49.9662 518.951 46.1542 512.348 46.1542 505.203V183.797C46.1542 176.652 49.9662 170.049 56.1542 166.477L334.5 5.7735Z" fill="url(#paint1_linear_65_38)"/>
</g>
<path d="M334.75 6.20605C340.595 2.8316 347.754 2.72685 353.681 5.89062L354.25 6.20605L632.596 166.909C638.629 170.393 642.346 176.83 642.346 183.797V505.203C642.346 512.17 638.629 518.608 632.596 522.091L354.25 682.794C348.217 686.277 340.783 686.277 334.75 682.794L56.4043 522.091C50.371 518.608 46.6543 512.17 46.6543 505.203V183.797C46.6543 176.83 50.371 170.392 56.4043 166.909L334.75 6.20605Z" stroke="#FCF7EF"/>
<circle cx="576.569" cy="578.01" r="71.5711" fill="#FCF7EF" stroke="#FCF7EF"/>
</g>
<g filter="url(#filter1_i_65_38)">
<path d="M601.539 577.519C623.183 595.066 630.617 617.857 613.07 639.5C595.524 661.144 569.603 656.568 552.471 634.726C535.338 612.884 537.867 556.641 555.413 534.997C572.96 513.354 579.896 559.972 601.539 577.519Z" fill="#EDC9AF"/>
</g>
<path d="M555.802 535.312C557.968 532.64 559.931 531.073 561.73 530.355C563.507 529.646 565.16 529.751 566.77 530.497C568.401 531.252 570.005 532.675 571.627 534.633C573.246 536.587 574.857 539.041 576.511 541.818C578.163 544.595 579.849 547.678 581.622 550.889C583.394 554.097 585.252 557.43 587.242 560.69C591.219 567.204 595.746 573.467 601.224 577.908C611.992 586.637 619.175 596.632 621.513 607.083C623.846 617.512 621.372 628.467 612.682 639.185C604.004 649.89 593.298 654.071 582.669 652.923C572.02 651.772 561.37 645.26 552.865 634.417C544.409 623.637 540.754 604.264 541.437 584.805C542.119 565.35 547.13 546.009 555.802 535.312Z" stroke="#FCF7EF"/>
<g filter="url(#filter2_d_65_38)">
<mask id="mask1_65_38" style="mask-type:alpha" maskUnits="userSpaceOnUse" x="272" y="282" width="145" height="273">
<path d="M344.507 283.032C361.622 286.696 379.492 299.845 393.103 320.253C406.736 340.696 416.071 368.392 416.071 401.019C416.071 433.558 395.156 465.807 375.624 493.073C365.879 506.675 356.472 519.049 350.264 529.537C347.158 534.784 344.833 539.59 343.666 543.871C342.742 547.261 342.536 550.355 343.272 553.087C330.394 540.646 313.243 519.251 299.101 493.125C284.374 465.921 272.929 433.63 272.929 401.019C272.929 368.404 283.316 340.71 297.482 320.26C311.622 299.846 329.495 286.697 344.507 283.032Z" fill="#FFFDFD" stroke="#F7F3E8"/>
</mask>
<g mask="url(#mask1_65_38)">
<path d="M344.507 283.032C361.622 286.696 379.492 299.845 393.103 320.253C406.736 340.696 416.071 368.392 416.071 401.019C416.071 433.558 395.156 465.807 375.624 493.073C365.879 506.675 356.472 519.049 350.264 529.537C347.158 534.784 344.833 539.59 343.666 543.871C342.742 547.261 342.536 550.355 343.272 553.087C330.394 540.646 313.243 519.251 299.101 493.125C284.374 465.921 272.929 433.63 272.929 401.019C272.929 368.404 283.316 340.71 297.482 320.26C311.622 299.846 329.495 286.697 344.507 283.032Z" fill="#FCF7EF" stroke="#FCF7EF"/>
<mask id="mask2_65_38" style="mask-type:alpha" maskUnits="userSpaceOnUse" x="248" y="466" width="193" height="43">
<path d="M270.374 467.489H418.219C419.697 467.489 420.983 468.162 421.571 469.132L432.199 486.665L439.903 504.316C440.285 505.19 440.078 506.087 439.441 506.795C438.797 507.511 437.712 508.025 436.397 508.025H252.6C251.365 508.025 250.319 507.567 249.662 506.906C249.01 506.251 248.747 505.411 249.002 504.571L250.888 498.35C250.935 498.195 250.999 498.042 251.081 497.893L256.289 488.442L266.973 469.215C267.535 468.203 268.849 467.489 270.374 467.489Z" fill="#334969" stroke="#F7F3E8"/>
</mask>
<g mask="url(#mask2_65_38)">
<path d="M270.374 467.489H418.219C419.697 467.489 420.983 468.162 421.571 469.132L432.199 486.665L439.903 504.316C440.285 505.19 440.078 506.087 439.441 506.795C438.797 507.511 437.712 508.025 436.397 508.025H252.6C251.365 508.025 250.319 507.567 249.662 506.906C249.01 506.251 248.747 505.411 249.002 504.571L250.888 498.35C250.935 498.195 250.999 498.042 251.081 497.893L256.289 488.442L266.973 469.215C267.535 468.203 268.849 467.489 270.374 467.489Z" fill="#FCF7EF" stroke="#FCF7EF"/>
<path d="M337.205 8.88696C342.688 6.15048 349.138 6.1504 354.621 8.88696L640.579 151.612C647.192 154.912 651.371 161.668 651.371 169.059V449.732C651.371 457.123 647.192 463.878 640.579 467.179L354.621 609.904C349.138 612.64 342.688 612.64 337.205 609.904L51.2473 467.179C44.6342 463.878 40.4554 457.123 40.4553 449.732V169.059C40.4553 161.668 44.6342 154.912 51.2473 151.612L337.205 8.88696Z" fill="url(#paint2_linear_65_38)" stroke="#FCF7EF"/>
</g>
<mask id="mask3_65_38" style="mask-type:alpha" maskUnits="userSpaceOnUse" x="248" y="392" width="193" height="43">
<path d="M270.374 392.968H418.219C419.697 392.968 420.983 393.641 421.571 394.611L432.199 412.145L439.903 429.795C440.285 430.669 440.078 431.566 439.441 432.274C438.797 432.991 437.712 433.504 436.397 433.504H252.6C251.365 433.504 250.319 433.046 249.662 432.386C249.01 431.73 248.747 430.89 249.002 430.05L250.888 423.829C250.935 423.674 250.999 423.521 251.081 423.372L256.289 413.921L266.973 394.694C267.535 393.683 268.849 392.968 270.374 392.968Z" fill="#334969" stroke="#F7F3E8"/>
</mask>
<g mask="url(#mask3_65_38)">
<path d="M270.374 392.968H418.219C419.697 392.968 420.983 393.641 421.571 394.611L432.199 412.145L439.903 429.795C440.285 430.669 440.078 431.566 439.441 432.274C438.797 432.991 437.712 433.504 436.397 433.504H252.6C251.365 433.504 250.319 433.046 249.662 432.386C249.01 431.73 248.747 430.89 249.002 430.05L250.888 423.829C250.935 423.674 250.999 423.521 251.081 423.372L256.289 413.921L266.973 394.694C267.535 393.683 268.849 392.968 270.374 392.968Z" fill="#FCF7EF" stroke="#FCF7EF"/>
<path d="M335.792 8.88721C341.275 6.15072 347.725 6.15064 353.208 8.88721L639.166 151.612C645.779 154.912 649.958 161.668 649.958 169.059V449.732C649.958 457.123 645.779 463.879 639.166 467.179L353.208 609.904C347.725 612.64 341.275 612.64 335.792 609.904L49.8341 467.179C43.2211 463.879 39.0422 457.123 39.0421 449.732V169.059C39.0422 161.668 43.221 154.912 49.8341 151.612L335.792 8.88721Z" fill="url(#paint3_linear_65_38)" stroke="#FCF7EF"/>
</g>
<mask id="mask4_65_38" style="mask-type:alpha" maskUnits="userSpaceOnUse" x="272" y="317" width="145" height="43">
<path d="M288.905 318.447H399.789C400.791 318.447 401.722 319.054 402.169 320.038L410.142 337.576L415.921 355.23C416.534 357.102 415.206 358.983 413.423 358.983H275.575C273.897 358.983 272.593 357.306 273.005 355.495L274.419 349.274C274.456 349.111 274.506 348.953 274.57 348.8L278.476 339.347L286.488 320.123C286.891 319.156 287.756 318.529 288.713 318.455L288.905 318.447Z" fill="#334969" stroke="#F7F3E8"/>
</mask>
<g mask="url(#mask4_65_38)">
<path d="M288.905 318.447H399.789C400.791 318.447 401.722 319.054 402.169 320.038L410.142 337.576L415.921 355.23C416.534 357.102 415.206 358.983 413.423 358.983H275.575C273.897 358.983 272.593 357.306 273.005 355.495L274.419 349.274C274.456 349.111 274.506 348.953 274.57 348.8L278.476 339.347L286.488 320.123C286.891 319.156 287.756 318.529 288.713 318.455L288.905 318.447Z" fill="#FCF7EF" stroke="#FCF7EF"/>
<path d="M337.205 8.88696C342.688 6.15048 349.138 6.1504 354.621 8.88696L640.579 151.612C647.192 154.912 651.371 161.668 651.371 169.059V449.732C651.371 457.123 647.192 463.878 640.579 467.179L354.621 609.904C349.138 612.64 342.688 612.64 337.205 609.904L51.2473 467.179C44.6342 463.878 40.4554 457.123 40.4553 449.732V169.059C40.4553 161.668 44.6342 154.912 51.2473 151.612L337.205 8.88696Z" fill="url(#paint4_linear_65_38)" stroke="#FCF7EF"/>
</g>
</g>
</g>
<g filter="url(#filter3_d_65_38)">
<path d="M343.78 197.975C361.024 197.975 376.612 201.913 387.87 208.254C399.145 214.604 405.981 223.298 405.981 232.789C405.981 242.281 399.145 250.975 387.87 257.325C376.612 263.667 361.024 267.605 343.78 267.605C326.535 267.605 310.947 263.667 299.688 257.325C288.413 250.975 281.577 242.281 281.577 232.789C281.578 223.298 288.413 214.604 299.688 208.254C310.947 201.913 326.535 197.975 343.78 197.975Z" fill="#FCF7EF" stroke="#FCF7EF"/>
<path d="M373.626 203.687C388.986 167.225 404.862 157.998 447.333 163.387" stroke="#FCF7EF" stroke-width="6"/>
<circle cx="446.12" cy="165.043" r="10.3107" fill="#FCF7EF" stroke="#FCF7EF"/>
<path d="M315.374 203.687C300.014 167.225 284.138 157.998 241.667 163.387" stroke="#FCF7EF" stroke-width="6"/>
<circle cx="10.8107" cy="10.8107" r="10.3107" transform="matrix(-1 0 0 1 253.69 154.232)" fill="#FCF7EF" stroke="#FCF7EF"/>
</g>
<g filter="url(#filter4_d_65_38)">
<path d="M566.628 233.629C572.622 231.838 577.026 231.796 580.132 233.003C583.208 234.197 585.098 236.651 586.007 240.076C586.921 243.52 586.833 247.925 585.936 252.925C585.041 257.917 583.345 263.466 581.079 269.177C576.546 280.602 569.748 292.637 562.571 302.123C558.982 306.866 555.307 310.96 551.782 314.02C548.248 317.088 544.907 319.08 541.988 319.682C535.924 320.933 530.707 321.589 526.047 322.097C521.396 322.603 517.27 322.965 513.431 323.626C505.707 324.956 499.097 327.505 491.334 334.871C487.592 338.421 479.994 341.619 471.044 343.904C462.119 346.183 451.947 347.529 443.14 347.436C438.736 347.389 434.689 346.982 431.316 346.16C427.934 345.335 425.28 344.105 423.61 342.447C421.967 340.816 421.249 338.745 421.767 336.115C422.293 333.448 424.097 330.18 427.588 326.243C441.62 310.42 464.32 290.866 489.556 273.462C514.795 256.057 542.53 240.829 566.628 233.629Z" fill="#FCF7EF" stroke="#FCF7EF"/>
<path d="M561.109 350.912C565.604 352.886 568.279 355.013 569.568 357.157C570.835 359.266 570.799 361.453 569.726 363.688C568.64 365.949 566.491 368.253 563.549 370.492C560.614 372.725 556.925 374.868 552.807 376.822C544.57 380.731 534.663 383.86 525.753 385.435C521.298 386.223 517.104 386.619 513.5 386.536C509.886 386.452 506.914 385.885 504.866 384.786C500.587 382.488 497.108 380.286 494.037 378.277C490.973 376.271 488.293 374.442 485.643 372.914C480.307 369.839 475.057 367.966 466.785 368.118C462.826 368.191 456.69 366.193 450.16 363.035C443.653 359.888 436.838 355.632 431.544 351.271C428.897 349.091 426.641 346.894 424.996 344.807C423.343 342.71 422.342 340.77 422.132 339.1C421.927 337.478 422.461 336.076 423.994 334.953C425.565 333.801 428.205 332.932 432.214 332.529C448.333 330.908 471.51 331.53 495.195 334.548C518.881 337.567 543.03 342.977 561.109 350.912Z" fill="#FCF7EF" stroke="#FCF7EF"/>
</g>
<g filter="url(#filter5_d_65_38)">
<path d="M124.133 233.156C118.139 231.365 113.735 231.323 110.629 232.53C107.553 233.724 105.663 236.178 104.754 239.603C103.84 243.047 103.928 247.452 104.825 252.452C105.72 257.444 107.416 262.993 109.682 268.704C114.215 280.129 121.013 292.164 128.19 301.65C131.779 306.393 135.454 310.487 138.979 313.547C142.513 316.615 145.854 318.607 148.773 319.209C154.837 320.46 160.054 321.116 164.714 321.624C169.365 322.13 173.491 322.492 177.33 323.153C185.054 324.483 191.664 327.032 199.427 334.398C203.169 337.948 210.767 341.146 219.717 343.431C228.642 345.71 238.814 347.056 247.621 346.963C252.025 346.916 256.072 346.509 259.445 345.687C262.827 344.862 265.481 343.632 267.151 341.974C268.794 340.343 269.512 338.272 268.994 335.642C268.468 332.975 266.664 329.707 263.173 325.77C249.141 309.947 226.441 290.393 201.205 272.989C175.966 255.584 148.231 240.356 124.133 233.156Z" fill="#FCF7EF" stroke="#FCF7EF"/>
<path d="M129.652 350.439C125.157 352.413 122.482 354.54 121.193 356.684C119.926 358.793 119.962 360.98 121.035 363.215C122.121 365.476 124.27 367.78 127.212 370.019C130.147 372.252 133.836 374.395 137.954 376.349C146.191 380.258 156.097 383.387 165.008 384.962C169.463 385.749 173.657 386.146 177.26 386.063C180.875 385.979 183.847 385.412 185.895 384.313C190.174 382.015 193.653 379.813 196.724 377.804C199.788 375.798 202.468 373.969 205.118 372.441C210.454 369.366 215.704 367.493 223.976 367.645C227.935 367.718 234.07 365.72 240.601 362.562C247.108 359.415 253.923 355.158 259.217 350.798C261.864 348.618 264.12 346.421 265.765 344.334C267.418 342.237 268.419 340.297 268.629 338.627C268.833 337.005 268.3 335.603 266.767 334.48C265.195 333.328 262.556 332.459 258.547 332.056C242.427 330.435 219.251 331.057 195.566 334.075C171.88 337.094 147.731 342.504 129.652 350.439Z" fill="#FCF7EF" stroke="#FCF7EF"/>
</g>
<defs>
<filter id="filter0_i_65_38" x="46.1542" y="3.09399" width="596.692" height="686.812" filterUnits="userSpaceOnUse" color-interpolation-filters="sRGB">
<feFlood flood-opacity="0" result="BackgroundImageFix"/>
<feBlend mode="normal" in="SourceGraphic" in2="BackgroundImageFix" result="shape"/>
<feColorMatrix in="SourceAlpha" type="matrix" values="0 0 0 0 0 0 0 0 0 0 0 0 0 0 0 0 0 0 127 0" result="hardAlpha"/>
<feOffset dy="4"/>
<feGaussianBlur stdDeviation="2"/>
<feComposite in2="hardAlpha" operator="arithmetic" k2="-1" k3="1"/>
<feColorMatrix type="matrix" values="0 0 0 0 0 0 0 0 0 0 0 0 0 0 0 0 0 0 0.25 0"/>
<feBlend mode="normal" in2="shape" result="effect1_innerShadow_65_38"/>
</filter>
<filter id="filter1_i_65_38" x="540.857" y="529.376" width="81.9865" height="128.231" filterUnits="userSpaceOnUse" color-interpolation-filters="sRGB">
<feFlood flood-opacity="0" result="BackgroundImageFix"/>
<feBlend mode="normal" in="SourceGraphic" in2="BackgroundImageFix" result="shape"/>
<feColorMatrix in="SourceAlpha" type="matrix" values="0 0 0 0 0 0 0 0 0 0 0 0 0 0 0 0 0 0 127 0" result="hardAlpha"/>
<feOffset dy="4"/>
<feGaussianBlur stdDeviation="2"/>
<feComposite in2="hardAlpha" operator="arithmetic" k2="-1" k3="1"/>
<feColorMatrix type="matrix" values="0 0 0 0 0 0 0 0 0 0 0 0 0 0 0 0 0 0 0.25 0"/>
<feBlend mode="normal" in2="shape" result="effect1_innerShadow_65_38"/>
</filter>
<filter id="filter2_d_65_38" x="268.429" y="282.519" width="152.142" height="280.429" filterUnits="userSpaceOnUse" color-interpolation-filters="sRGB">
<feFlood flood-opacity="0" result="BackgroundImageFix"/>
<feColorMatrix in="SourceAlpha" type="matrix" values="0 0 0 0 0 0 0 0 0 0 0 0 0 0 0 0 0 0 127 0" result="hardAlpha"/>
<feOffset dy="4"/>
<feGaussianBlur stdDeviation="2"/>
<feComposite in2="hardAlpha" operator="out"/>
<feColorMatrix type="matrix" values="0 0 0 0 0 0 0 0 0 0 0 0 0 0 0 0 0 0 0.25 0"/>
<feBlend mode="normal" in2="BackgroundImageFix" result="effect1_dropShadow_65_38"/>
<feBlend mode="normal" in="SourceGraphic" in2="effect1_dropShadow_65_38" result="shape"/>
</filter>
<filter id="filter3_d_65_38" x="228.069" y="154.232" width="232.862" height="121.872" filterUnits="userSpaceOnUse" color-interpolation-filters="sRGB">
<feFlood flood-opacity="0" result="BackgroundImageFix"/>
<feColorMatrix in="SourceAlpha" type="matrix" values="0 0 0 0 0 0 0 0 0 0 0 0 0 0 0 0 0 0 127 0" result="hardAlpha"/>
<feOffset dy="4"/>
<feGaussianBlur stdDeviation="2"/>
<feComposite in2="hardAlpha" operator="out"/>
<feColorMatrix type="matrix" values="0 0 0 0 0 0 0 0 0 0 0 0 0 0 0 0 0 0 0.25 0"/>
<feBlend mode="normal" in2="BackgroundImageFix" result="effect1_dropShadow_65_38"/>
<feBlend mode="normal" in="SourceGraphic" in2="effect1_dropShadow_65_38" result="shape"/>
</filter>
<filter id="filter4_d_65_38" x="417.101" y="231.678" width="174.05" height="163.369" filterUnits="userSpaceOnUse" color-interpolation-filters="sRGB">
<feFlood flood-opacity="0" result="BackgroundImageFix"/>
<feColorMatrix in="SourceAlpha" type="matrix" values="0 0 0 0 0 0 0 0 0 0 0 0 0 0 0 0 0 0 127 0" result="hardAlpha"/>
<feOffset dy="4"/>
<feGaussianBlur stdDeviation="2"/>
<feComposite in2="hardAlpha" operator="out"/>
<feColorMatrix type="matrix" values="0 0 0 0 0 0 0 0 0 0 0 0 0 0 0 0 0 0 0.25 0"/>
<feBlend mode="normal" in2="BackgroundImageFix" result="effect1_dropShadow_65_38"/>
<feBlend mode="normal" in="SourceGraphic" in2="effect1_dropShadow_65_38" result="shape"/>
</filter>
<filter id="filter5_d_65_38" x="99.6097" y="231.205" width="174.05" height="163.369" filterUnits="userSpaceOnUse" color-interpolation-filters="sRGB">
<feFlood flood-opacity="0" result="BackgroundImageFix"/>
<feColorMatrix in="SourceAlpha" type="matrix" values="0 0 0 0 0 0 0 0 0 0 0 0 0 0 0 0 0 0 127 0" result="hardAlpha"/>
<feOffset dy="4"/>
<feGaussianBlur stdDeviation="2"/>
<feComposite in2="hardAlpha" operator="out"/>
<feColorMatrix type="matrix" values="0 0 0 0 0 0 0 0 0 0 0 0 0 0 0 0 0 0 0.25 0"/>
<feBlend mode="normal" in2="BackgroundImageFix" result="effect1_dropShadow_65_38"/>
<feBlend mode="normal" in="SourceGraphic" in2="effect1_dropShadow_65_38" result="shape"/>
</filter>
<linearGradient id="paint0_linear_65_38" x1="492.635" y1="-61.321" x2="532.597" y2="762.723" gradientUnits="userSpaceOnUse">
<stop stop-color="#334969"/>
<stop offset="0.759615" stop-color="#E6CB6D"/>
</linearGradient>
<linearGradient id="paint1_linear_65_38" x1="492.635" y1="-61.321" x2="532.597" y2="762.723" gradientUnits="userSpaceOnUse">
<stop stop-color="#D4A65D"/>
<stop offset="0.6" stop-color="#EDC9AF"/>
</linearGradient>
<linearGradient id="paint2_linear_65_38" x1="497.828" y1="-50.3819" x2="528.473" y2="680.601" gradientUnits="userSpaceOnUse">
<stop stop-color="#D4A65D"/>
<stop offset="0.6" stop-color="#EDC9AF"/>
</linearGradient>
<linearGradient id="paint3_linear_65_38" x1="496.415" y1="-50.3817" x2="527.06" y2="680.601" gradientUnits="userSpaceOnUse">
<stop stop-color="#D4A65D"/>
<stop offset="0.6" stop-color="#EDC9AF"/>
</linearGradient>
<linearGradient id="paint4_linear_65_38" x1="497.828" y1="-50.3819" x2="528.473" y2="680.601" gradientUnits="userSpaceOnUse">
<stop stop-color="#D4A65D"/>
<stop offset="0.6" stop-color="#EDC9AF"/>
</linearGradient>
</defs>
</svg>
